{"accessors":[{"bufferView":0,"byteOffset":0,"componentType":5126,"count":714,"max":[-0.008748318088836683,0.15635168191116337,-0.03651249999999999],"min":[-0.01665168191116333,0.1484483180888367,-0.10483850000000002],"type":"VEC3"},{"bufferView":0,"byteOffset":8568,"componentType":5126,"count":714,"max":[-0.1484391230938905,0.016660876906109524,-0.036512499999999999],"min":[-0.15636087690610954,0.008739123093890527,-0.10483850000000003],"type":"VEC3"},{"bufferView":0,"byteOffset":17136,"componentType":5126,"count":5378,"max":[0.0,0.15875000000000004,-0.036512499999999999],"min":[-0.15875000000000007,-2.842170943040401e-17,-0.04445000000000001],"type":"VEC3"},{"bufferView":0,"byteOffset":81672,"componentType":5126,"count":3693,"max":[-0.01781243913615104,0.11553756086384906,-0.046844013241016699],"min":[-0.11553756086384899,0.017812439136151,-0.09366250000000001],"type":"VEC3"},{"bufferView":0,"byteOffset":125988,"componentType":5126,"count":6141,"max":[-0.02032,0.1130268948142855,-0.024606249999999997],"min":[-0.11302630266757723,0.01544799996500001,-0.10874375000000004],"type":"VEC3"},{"bufferView":0,"byteOffset":199680,"componentType":5126,"count":607,"max":[-0.015875,0.11744129700140203,-0.092075],"min":[-0.11744129700140156,0.015908702998598514,-0.09842500000000003],"type":"VEC3"},{"bufferView":0,"byteOffset":206964,"componentType":5126,"count":2165,"max":[-0.04317500000000001,0.09683750000000004,-0.02733395565684288],"min":[-0.09017500000000005,0.04380000000000001,-0.07429544167400062],"type":"VEC3"},{"bufferView":0,"byteOffset":232944,"componentType":5126,"count":296,"max":[-0.007950200000000003,0.017449800000000027,-0.04444999999999999],"min":[-0.017449800000000013,0.00795020000000001,-0.09525000000000002],"type":"VEC3"},{"bufferView":0,"byteOffset":236496,"componentType":5126,"count":13865,"max":[-0.0089094571227473,0.12302474503809692,-0.08950959999999998],"min":[-0.18942230113521278,0.00891132044532462,-0.15655290000000006],"type":"VEC3"},{"bufferView":0,"byteOffset":402876,"componentType":5126,"count":16979,"max":[-0.009587429685805732,0.12700000000000004,-0.10001249999999999],"min":[-0.18989063795081335,0.009525000000000006,-0.15081250000000008],"type":"VEC3"},{"bufferView":0,"byteOffset":606624,"componentType":5126,"count":3192,"max":[-0.03925657811435416,0.09409512635652233,-0.1445895],"min":[-0.09409342188564586,0.039254873782018518,-0.15319375355240803],"type":"VEC3"},{"bufferView":0,"byteOffset":644928,"componentType":5126,"count":780,"max":[-0.03810000000000001,0.11430000000000001,-0.1425575],"min":[-0.10795,0.03810000000000001,-0.15081250000000008],"type":"VEC3"},{"bufferView":0,"byteOffset":654288,"componentType":5126,"count":183,"max":[-0.10683047152656102,0.09059651839657172,-0.15081250000000002],"min":[-0.14962602224503308,0.05619266786563031,-0.15398750000000009],"type":"VEC3"},{"bufferView":0,"byteOffset":656484,"componentType":5126,"count":8081,"max":[1.4210854715202005e-17,0.15875000000000007,-0.09207499999999999],"min":[-0.15875000000000004,-1.4210854715202005e-17,-0.10001250000000002],"type":"VEC3"},{"bufferView":0,"byteOffset":753456,"componentType":5126,"count":504,"max":[-0.011470658235632904,0.12348845000000003,-0.10001249999999999],"min":[-0.13460095000000003,0.011470658235633012,-0.10001250000000002],"type":"VEC3"},{"bufferView":0,"byteOffset":759504,"componentType":5126,"count":718,"max":[-0.008739940597667896,0.11826005940233202,-0.0365125],"min":[-0.01666005940233211,0.110339940597668,-0.1048385],"type":"VEC3"},{"bufferView":0,"byteOffset":768120,"componentType":5126,"count":714,"max":[-0.11034743556307379,0.016652564436926227,-0.036512499999999999],"min":[-0.11825256443692621,0.008747435563073808,-0.10483850000000002],"type":"VEC3"},{"bufferView":0,"byteOffset":776688,"componentType":5126,"count":714,"max":[-0.008752084088953737,0.016647915911046284,-0.036512499999999999],"min":[-0.01664791591104627,0.008752084088953751,-0.10483850000000002],"type":"VEC3"},{"bufferView":0,"byteOffset":785256,"componentType":5126,"count":12158,"max":[-0.020689548598956273,0.09683750000000005,-0.004889882732506038],"min":[-0.11258511726749396,0.03651250000000001,-0.09671396388475369],"type":"VEC3"},{"bufferView":0,"byteOffset":931152,"componentType":5126,"count":221,"max":[-0.016015560256558375,0.09525000000000006,-0.0001405602565583735],"min":[-0.11733443974344164,0.03810000000000001,-0.10145943974344163],"type":"VEC3"},{"bufferView":1,"byteOffset":0,"componentType":5126,"count":714,"type":"VEC3"},{"bufferView":1,"byteOffset":8568,"componentType":5126,"count":714,"type":"VEC3"},{"bufferView":1,"byteOffset":17136,"componentType":5126,"count":5378,"type":"VEC3"},{"bufferView":1,"byteOffset":81672,"componentType":5126,"count":3693,"type":"VEC3"},{"bufferView":1,"byteOffset":125988,"componentType":5126,"count":6141,"type":"VEC3"},{"bufferView":1,"byteOffset":199680,"componentType":5126,"count":607,"type":"VEC3"},{"bufferView":1,"byteOffset":206964,"componentType":5126,"count":2165,"type":"VEC3"},{"bufferView":1,"byteOffset":232944,"componentType":5126,"count":296,"type":"VEC3"},{"bufferView":1,"byteOffset":236496,"componentType":5126,"count":13865,"type":"VEC3"},{"bufferView":1,"byteOffset":402876,"componentType":5126,"count":16979,"type":"VEC3"},{"bufferView":1,"byteOffset":606624,"componentType":5126,"count":3192,"type":"VEC3"},{"bufferView":1,"byteOffset":644928,"componentType":5126,"count":780,"type":"VEC3"},{"bufferView":1,"byteOffset":654288,"componentType":5126,"count":183,"type":"VEC3"},{"bufferView":1,"byteOffset":656484,"componentType":5126,"count":8081,"type":"VEC3"},{"bufferView":1,"byteOffset":753456,"componentType":5126,"count":504,"type":"VEC3"},{"bufferView":1,"byteOffset":759504,"componentType":5126,"count":718,"type":"VEC3"},{"bufferView":1,"byteOffset":768120,"componentType":5126,"count":714,"type":"VEC3"},{"bufferView":1,"byteOffset":776688,"componentType":5126,"count":714,"type":"VEC3"},{"bufferView":1,"byteOffset":785256,"componentType":5126,"count":12158,"type":"VEC3"},{"bufferView":1,"byteOffset":931152,"componentType":5126,"count":221,"type":"VEC3"},{"bufferView":2,"byteOffset":0,"componentType":5123,"count":1992,"type":"SCALAR"},{"bufferView":2,"byteOffset":3984,"componentType":5123,"count":1992,"type":"SCALAR"},{"bufferView":2,"byteOffset":7968,"componentType":5123,"count":15198,"type":"SCALAR"},{"bufferView":2,"byteOffset":38364,"componentType":5123,"count":12669,"type":"SCALAR"},{"bufferView":2,"byteOffset":63704,"componentType":5123,"count":17181,"type":"SCALAR"},{"bufferView":2,"byteOffset":98068,"componentType":5123,"count":1749,"type":"SCALAR"},{"bufferView":2,"byteOffset":101568,"componentType":5123,"count":8871,"type":"SCALAR"},{"bufferView":2,"byteOffset":119312,"componentType":5123,"count":864,"type":"SCALAR"},{"bufferView":2,"byteOffset":121040,"componentType":5123,"count":41091,"type":"SCALAR"},{"bufferView":2,"byteOffset":203224,"componentType":5123,"count":77610,"type":"SCALAR"},{"bufferView":2,"byteOffset":358444,"componentType":5123,"count":9306,"type":"SCALAR"},{"bufferView":2,"byteOffset":377056,"componentType":5123,"count":2250,"type":"SCALAR"},{"bufferView":2,"byteOffset":381556,"componentType":5123,"count":531,"type":"SCALAR"},{"bufferView":2,"byteOffset":382620,"componentType":5123,"count":22875,"type":"SCALAR"},{"bufferView":2,"byteOffset":428372,"componentType":5123,"count":1476,"type":"SCALAR"},{"bufferView":2,"byteOffset":431324,"componentType":5123,"count":2004,"type":"SCALAR"},{"bufferView":2,"byteOffset":435332,"componentType":5123,"count":1992,"type":"SCALAR"},{"bufferView":2,"byteOffset":439316,"componentType":5123,"count":1992,"type":"SCALAR"},{"bufferView":2,"byteOffset":443300,"componentType":5123,"count":55503,"type":"SCALAR"},{"bufferView":2,"byteOffset":554308,"componentType":5123,"count":651,"type":"SCALAR"}],"asset":{"generator":"Open CASCADE Technology 7.6 [dev.opencascade.org]","version":"2.0","extras":{"Author":"","Originating system":"ONSHAPE BY PTC INC, 1.205","Organization":"","Comments":"STEP AP242\nCAx-IF Rec.Pracs.---Representation and Presentation of Product Manufacturing Information (PMI)---4.0---2014-10-13\nCAx-IF Rec.Pracs.---3D Tessellated Geometry---0.4---2014-09-14\n2;1"}},"bufferViews":[{"buffer":0,"byteLength":933804,"byteOffset":0,"byteStride":12,"target":34962},{"buffer":0,"byteLength":933804,"byteOffset":933804,"byteStride":12,"target":34962},{"buffer":0,"byteLength":555612,"byteOffset":1867608,"target":34963}],"buffers":[{"byteLength":2423220,"uri":"MK5n, A.bin"}],"materials":[{"name":"mat_0","pbrMetallicRoughness":{"baseColorFactor":[0.07227185368537903,0.07227185368537903,0.07227185368537903,1.0],"roughnessFactor":0.2121320366859436},"doubleSided":true},{"name":"mat_1","pbrMetallicRoughness":{"baseColorFactor":[0.7835378050804138,0.8148465752601624,0.838798999786377,1.0],"roughnessFactor":0.2121320366859436},"doubleSided":true},{"name":"mat_2","pbrMetallicRoughness":{"baseColorFactor":[0.7835378050804138,0.8069522380828857,0.8307698965072632,1.0],"roughnessFactor":0.2121320366859436},"doubleSided":true},{"name":"mat_3","pbrMetallicRoughness":{"baseColorFactor":[0.3762621283531189,0.34191441535949709,0.2917706370353699,1.0],"roughnessFactor":0.2121320366859436},"doubleSided":true},{"name":"mat_4","pbrMetallicRoughness":{"baseColorFactor":[0.5457244515419006,0.5149176716804504,0.48514994978904726,1.0],"roughnessFactor":0.2121320366859436},"doubleSided":true},{"name":"mat_5","pbrMetallicRoughness":{"baseColorFactor":[0.21223075687885285,0.21223075687885285,0.21223075687885285,1.0],"roughnessFactor":0.2121320366859436},"doubleSided":true},{"name":"mat_6","pbrMetallicRoughness":{"baseColorFactor":[1.0,1.0,1.0,1.0],"roughnessFactor":0.2121320366859436},"doubleSided":true},{"name":"mat_7","pbrMetallicRoughness":{"baseColorFactor":[0.6514056324958801,0.4019777774810791,0.014443843625485897,1.0],"roughnessFactor":0.2121320366859436},"doubleSided":true},{"name":"mat_8","pbrMetallicRoughness":{"baseColorFactor":[0.7835378050804138,0.7991027235984802,0.8227857351303101,1.0],"roughnessFactor":0.2121320366859436},"doubleSided":true},{"name":"mat_9","pbrMetallicRoughness":{"baseColorFactor":[0.5906188488006592,0.637596845626831,0.8468732237815857,1.0],"roughnessFactor":0.2121320366859436},"doubleSided":true}],"meshes":[{"name":"Part 3","primitives":[{"attributes":{"NORMAL":20,"POSITION":0},"indices":40,"material":0,"mode":4}]},{"name":"Part 5","primitives":[{"attributes":{"NORMAL":21,"POSITION":1},"indices":41,"material":0,"mode":4}]},{"name":"Part 8","primitives":[{"attributes":{"NORMAL":22,"POSITION":2},"indices":42,"material":1,"mode":4}]},{"name":"Part 10","primitives":[{"attributes":{"NORMAL":23,"POSITION":3},"indices":43,"material":0,"mode":4},{"attributes":{"NORMAL":24,"POSITION":4},"indices":44,"material":2,"mode":4},{"attributes":{"NORMAL":25,"POSITION":5},"indices":45,"material":3,"mode":4},{"attributes":{"NORMAL":26,"POSITION":6},"indices":46,"material":4,"mode":4}]},{"name":"Part 2","primitives":[{"attributes":{"NORMAL":27,"POSITION":7},"indices":47,"material":1,"mode":4}]},{"name":"Part 1","primitives":[{"attributes":{"NORMAL":28,"POSITION":8},"indices":48,"material":0,"mode":4},{"attributes":{"NORMAL":29,"POSITION":9},"indices":49,"material":5,"mode":4},{"attributes":{"NORMAL":30,"POSITION":10},"indices":50,"material":6,"mode":4},{"attributes":{"NORMAL":31,"POSITION":11},"indices":51,"material":7,"mode":4},{"attributes":{"NORMAL":32,"POSITION":12},"indices":52,"material":8,"mode":4},{"attributes":{"NORMAL":33,"POSITION":13},"indices":53,"material":1,"mode":4},{"attributes":{"NORMAL":34,"POSITION":14},"indices":54,"material":9,"mode":4}]},{"name":"Part 4","primitives":[{"attributes":{"NORMAL":35,"POSITION":15},"indices":55,"material":0,"mode":4}]},{"name":"Part 6","primitives":[{"attributes":{"NORMAL":36,"POSITION":16},"indices":56,"material":0,"mode":4}]},{"name":"Part 7","primitives":[{"attributes":{"NORMAL":37,"POSITION":17},"indices":57,"material":0,"mode":4}]},{"name":"Part 9","primitives":[{"attributes":{"NORMAL":38,"POSITION":18},"indices":58,"material":5,"mode":4},{"attributes":{"NORMAL":39,"POSITION":19},"indices":59,"material":6,"mode":4}]}],"nodes":[{"children":[1,2,3,4,5,6,7,8,9,10],"name":"MK5n, A"},{"rotation":[0.7071067810280156,8.443260593032174e-9,-6.687632348722816e-9,0.7071067813450792],"translation":[0.0674964611701009,0.000319190549579598,-0.0840955550091924],"mesh":0,"name":"Part 3"},{"rotation":[0.7071067810280156,8.443260609541165e-9,-6.687632332213825e-9,0.7071067813450792],"translation":[0.0674964611701009,0.000319190549579598,-0.0840955550091924],"mesh":1,"name":"Part 5"},{"rotation":[0.7071067810280156,8.443260600391978e-9,-6.687632341363011e-9,0.7071067813450792],"translation":[0.0674964611701009,0.000319190549579598,-0.0840955550091924],"mesh":2,"name":"Part 8"},{"rotation":[0.7071067810280156,1.019888892581106e-8,-8.443260628316997e-9,0.7071067813450792],"translation":[0.0674964608390148,0.000319190549579655,-0.0840955553402782],"mesh":3,"name":"Part 10"},{"rotation":[0.7071067810280156,8.443260620018137e-9,-6.6876323217368538e-9,0.7071067813450792],"translation":[0.067496461170101,0.000319190549579598,-0.0840955550091924],"mesh":4,"name":"Part 2"},{"rotation":[0.7071067810280156,8.443260620018137e-9,-6.6876323217368538e-9,0.7071067813450792],"translation":[0.0674964611701006,0.000319190549579604,-0.0840955550091924],"mesh":5,"name":"Part 1"},{"rotation":[0.7071067810280156,8.443260599165344e-9,-6.687632342589644e-9,0.7071067813450792],"translation":[0.0674964611701009,0.000319190549579593,-0.0840955550091925],"mesh":6,"name":"Part 4"},{"rotation":[0.7071067810280156,8.4432605957921e-9,-6.687632345962891e-9,0.7071067813450792],"translation":[0.0674964611701009,0.000319190549579591,-0.0840955550091924],"mesh":7,"name":"Part 6"},{"rotation":[0.7071067810280156,8.443260600391978e-9,-6.687632341363011e-9,0.7071067813450792],"translation":[0.0674964611701009,0.000319190549579598,-0.0840955550091924],"mesh":8,"name":"Part 7"},{"rotation":[0.7071067810280152,-6.687632116022173e-9,-2.5329781517821886e-8,0.7071067813450794],"translation":[0.06749645841269021,0.000319187365028749,-0.0840955553402782],"mesh":9,"name":"Part 9"}],"scene":0,"scenes":[{"nodes":[0]}]}